<?xml version="1.0" encoding="UTF-8" standalone="no"?>
<svg
   xmlns:dc="http://purl.org/dc/elements/1.1/"
   xmlns:cc="http://creativecommons.org/ns#"
   xmlns:rdf="http://www.w3.org/1999/02/22-rdf-syntax-ns#"
   xmlns:svg="http://www.w3.org/2000/svg"
   xmlns="http://www.w3.org/2000/svg"
   viewBox="0 0 666.66669 666.66669"
   height="666.66669"
   width="666.66669"
   xml:space="preserve"
   id="svg2"
   version="1.1"><metadata
     id="metadata8"><rdf:RDF><cc:Work
         rdf:about=""><dc:format>image/svg+xml</dc:format><dc:type
           rdf:resource="http://purl.org/dc/dcmitype/StillImage" /><dc:title></dc:title></cc:Work></rdf:RDF></metadata><defs
     id="defs6" /><g
     transform="matrix(1.3333333,0,0,-1.3333333,0,666.66667)"
     id="g10"><g
       transform="scale(0.1)"
       id="g12"><path
         id="path14"
         style="fill:#5dc21e;fill-opacity:1;fill-rule:nonzero;stroke:none"
         d="M 5000,0 H 0 V 5000 H 5000 V 0" /><path
         id="path16"
         style="fill:#000000;fill-opacity:1;fill-rule:nonzero;stroke:none"
         d="m 1988.69,1521.24 -179.57,-247.97 185.9,2.49 -3.29,245.53 z m -291.16,-367.7 -1.76,131.34 301.63,416.35 128.31,1.73 5.7,-425.36 93.97,1.26 1.59,-118.21 -93.97,-1.27 2.2,-163.681 -136.39,-1.828 -2.21,163.689 -299.07,-4.02" /><path
         id="path18"
         style="fill:#000000;fill-opacity:1;fill-rule:nonzero;stroke:none"
         d="m 2408.23,1282.82 c 1.73,-28.62 6.32,-56.16 13.74,-82.67 7.43,-26.53 19.01,-49.11 34.77,-67.76 15.74,-18.65 38.09,-27.77 67.06,-27.39 29.63,0.41 52.24,10.14 67.82,29.21 15.56,19.07 26.72,41.95 33.44,68.66 6.72,26.7 10.54,54.37 11.51,83.01 0.96,28.65 1.32,53.08 1.05,73.28 -0.17,12.14 -0.54,26.78 -1.1,43.96 -0.57,17.15 -2.15,34.82 -4.75,52.98 -2.62,18.17 -6.22,36.13 -10.83,53.92 -4.64,17.77 -11.42,33.7 -20.35,47.73 -8.96,14.03 -20.23,25.33 -33.8,33.91 -13.6,8.55 -30.15,12.71 -49.68,12.46 -19.55,-0.26 -35.82,-4.87 -48.84,-13.8 -13.02,-8.93 -23.64,-20.52 -31.86,-34.77 -8.24,-14.27 -14.6,-30.35 -19.07,-48.26 -4.47,-17.92 -7.59,-35.97 -9.36,-54.19 -1.79,-18.22 -2.73,-35.92 -2.84,-53.09 -0.11,-17.19 -0.07,-31.84 0.08,-43.97 0.28,-20.2 1.27,-44.61 3.01,-73.22 z m -128.09,244.87 c 13.18,46.98 31.36,84.79 54.57,113.4 23.19,28.61 50.37,49.18 81.53,61.72 31.16,12.55 64.25,19.06 99.28,19.52 35.69,0.47 69.28,-5.12 100.77,-16.83 31.48,-11.7 59.36,-31.54 83.66,-59.51 24.29,-27.97 43.65,-65.28 58.1,-111.9 14.42,-46.64 22.11,-104.3 23.03,-173.01 0.95,-70.71 -5.17,-129.91 -18.33,-177.58 -13.18,-47.68 -31.53,-85.82 -55.05,-114.43 -23.54,-28.61 -50.88,-49.19 -82.04,-61.74 -31.16,-12.541 -64.59,-19.049 -100.29,-19.529 -35.03,-0.469 -68.28,5.16 -99.76,16.849 -31.49,11.71 -59.2,31.54 -83.16,59.52 -23.96,27.97 -43.16,65.61 -57.6,112.91 -14.45,47.3 -22.14,106.31 -23.09,177.04 -0.93,68.71 5.2,126.55 18.38,173.57" /><path
         id="path20"
         style="fill:#000000;fill-opacity:1;fill-rule:nonzero;stroke:none"
         d="m 3112.21,1536.32 -179.58,-247.97 185.91,2.49 -3.31,245.51 z m -291.16,-367.71 -1.75,131.35 301.61,416.35 128.32,1.73 5.7,-425.37 93.97,1.27 1.58,-118.23 -93.96,-1.26 2.2,-163.67 -136.41,-1.83 -2.19,163.69 -299.07,-4.03" /><path
         id="path22"
         style="fill:#000000;fill-opacity:1;fill-rule:nonzero;stroke:none"
         d="m 1760.09,780.551 c 3.31,0.051 6.5,0.328 9.56,0.871 3.07,0.519 5.76,1.508 8.07,2.957 2.31,1.453 4.16,3.473 5.54,6.07 1.39,2.59 2.04,5.981 1.98,10.16 -0.05,4.172 -0.81,7.539 -2.25,10.102 -1.44,2.559 -3.35,4.527 -5.7,5.91 -2.35,1.391 -5.06,2.301 -8.14,2.75 -3.09,0.438 -6.28,0.66 -9.59,0.609 l -22.48,-0.3 0.53,-39.43 z m 7.09,62.008 c 8.23,0.121 15.24,-1 21.05,-3.309 5.81,-2.328 10.54,-5.41 14.22,-9.301 3.67,-3.89 6.39,-8.34 8.11,-13.34 1.73,-5.019 2.62,-10.23 2.68,-15.629 0.08,-5.281 -0.67,-10.48 -2.26,-15.601 -1.6,-5.117 -4.18,-9.68 -7.75,-13.637 -3.57,-3.992 -8.23,-7.211 -13.96,-9.691 -5.74,-2.469 -12.73,-3.75 -20.96,-3.871 l -30.4,-0.399 0.63,-47.172 -28.91,-0.398 -1.78,131.551 59.33,0.797" /><path
         id="path24"
         style="fill:#000000;fill-opacity:1;fill-rule:nonzero;stroke:none"
         d="m 1885.43,763.441 -17.23,48.039 h -0.36 l -16.48,-48.5 z m -2.73,80.668 50.95,-130.89 -30.02,-0.387 -10.35,29.148 -49.19,-0.66 -9.92,-29.429 -29.11,-0.403 47.97,132.223 29.67,0.398" /><path
         id="path26"
         style="fill:#000000;fill-opacity:1;fill-rule:nonzero;stroke:none"
         d="m 2022.99,715.441 c -6.22,-2.73 -12.54,-4.132 -18.93,-4.211 -10.07,-0.14 -19.15,1.481 -27.23,4.879 -8.1,3.391 -14.95,8.121 -20.56,14.192 -5.61,6.07 -9.94,13.23 -13.01,21.48 -3.05,8.239 -4.65,17.168 -4.76,26.75 -0.14,9.821 1.2,18.957 4.04,27.418 2.83,8.442 6.97,15.84 12.42,22.172 5.44,6.34 12.16,11.34 20.16,15.02 7.99,3.679 17.03,5.57 27.1,5.711 6.75,0.089 13.32,-0.84 19.66,-2.782 6.35,-1.941 12.1,-4.84 17.26,-8.699 5.15,-3.871 9.42,-8.672 12.81,-14.379 3.39,-5.73 5.51,-12.351 6.35,-19.82 l -27.64,-0.383 c -1.81,7.352 -5.2,12.832 -10.17,16.453 -4.95,3.617 -10.94,5.379 -17.94,5.278 -6.51,-0.079 -12.02,-1.411 -16.53,-3.989 -4.52,-2.59 -8.15,-6.019 -10.92,-10.281 -2.77,-4.281 -4.76,-9.129 -5.98,-14.551 -1.21,-5.429 -1.78,-11.019 -1.71,-16.789 0.08,-5.519 0.79,-10.898 2.15,-16.09 1.37,-5.211 3.48,-9.871 6.36,-14.019 2.89,-4.141 6.61,-7.43 11.2,-9.879 4.57,-2.473 10.12,-3.66 16.63,-3.563 9.58,0.133 16.93,2.653 22.1,7.571 5.16,4.922 8.11,12 8.83,21.218 l -29.11,-0.386 -0.29,21.558 55.28,0.731 0.94,-71.11 -18.41,-0.25 -3.15,14.879 c -5.07,-6.691 -10.72,-11.422 -16.95,-14.129" /><path
         id="path28"
         style="fill:#000000;fill-opacity:1;fill-rule:nonzero;stroke:none"
         d="m 2181.52,848.121 0.33,-24.312 -69.45,-0.938 0.37,-28.191 63.75,0.859 0.3,-22.469 -63.74,-0.859 0.43,-32.25 70.92,0.961 0.34,-24.32 -99.87,-1.352 -1.76,131.559 98.38,1.312" /><path
         id="path30"
         style="fill:#000000;fill-opacity:1;fill-rule:nonzero;stroke:none"
         d="m 2282.48,849.48 56.09,-87.511 h 0.37 l -1.19,88.242 27.08,0.379 1.77,-131.551 -28.92,-0.391 -55.9,87.344 -0.37,-0.023 1.19,-88.059 -27.09,-0.371 -1.77,131.543 28.74,0.398" /><path
         id="path32"
         style="fill:#000000;fill-opacity:1;fill-rule:nonzero;stroke:none"
         d="m 2416.52,768.809 c 1.35,-5.2 3.47,-9.868 6.36,-14.02 2.88,-4.129 6.61,-7.43 11.18,-9.879 4.59,-2.461 10.12,-3.64 16.63,-3.551 6.52,0.09 12.02,1.411 16.54,3.993 4.51,2.578 8.15,5.98 10.91,10.187 2.79,4.211 4.77,8.941 5.99,14.191 1.22,5.231 1.8,10.61 1.72,16.129 -0.08,5.77 -0.8,11.36 -2.15,16.75 -1.38,5.383 -3.49,10.18 -6.38,14.371 -2.89,4.2 -6.61,7.532 -11.18,9.981 -4.59,2.469 -10.13,3.66 -16.65,3.57 -6.5,-0.09 -12.01,-1.429 -16.51,-4.011 -4.51,-2.571 -8.17,-6 -10.93,-10.282 -2.77,-4.269 -4.76,-9.117 -5.98,-14.527 -1.22,-5.441 -1.78,-11.039 -1.69,-16.813 0.06,-5.527 0.79,-10.886 2.14,-16.089 z m -27.03,43.132 c 2.84,8.438 6.98,15.84 12.41,22.188 5.46,6.34 12.18,11.34 20.18,15 7.99,3.672 17.02,5.582 27.1,5.711 10.2,0.14 19.31,-1.508 27.33,-4.969 8.04,-3.461 14.86,-8.281 20.46,-14.473 5.63,-6.187 9.95,-13.476 13.01,-21.847 3.07,-8.36 4.66,-17.469 4.8,-27.289 0.12,-9.582 -1.24,-18.551 -4.07,-26.883 -2.84,-8.328 -6.98,-15.59 -12.42,-21.809 -5.45,-6.211 -12.14,-11.129 -20.07,-14.73 -7.94,-3.61 -17,-5.488 -27.19,-5.621 -10.07,-0.137 -19.16,1.492 -27.25,4.883 -8.1,3.398 -14.94,8.117 -20.55,14.199 -5.61,6.07 -9.95,13.219 -13.01,21.48 -3.05,8.25 -4.64,17.16 -4.78,26.739 -0.13,9.832 1.22,18.98 4.05,27.421" /><path
         id="path34"
         style="fill:#000000;fill-opacity:1;fill-rule:nonzero;stroke:none"
         d="m 2523.6,828.391 -0.32,24.32 107.78,1.437 0.34,-24.328 -39.44,-0.511 1.44,-107.227 -28.93,-0.391 -1.44,107.231 -39.43,-0.531" /><path
         id="path36"
         style="fill:#000000;fill-opacity:1;fill-rule:nonzero;stroke:none"
         d="m 2789.87,856.281 0.33,-24.312 -63.57,-0.86 0.42,-30.41 55.09,0.75 0.29,-22.48 -55.09,-0.739 0.74,-54.339 -28.93,-0.391 -1.76,131.539 92.48,1.242" /><path
         id="path38"
         style="fill:#000000;fill-opacity:1;fill-rule:nonzero;stroke:none"
         d="m 2832.89,774.391 c 1.36,-5.192 3.48,-9.871 6.36,-14 2.87,-4.141 6.61,-7.442 11.18,-9.899 4.59,-2.453 10.13,-3.633 16.65,-3.551 6.49,0.09 12,1.418 16.51,4 4.52,2.579 8.16,5.969 10.93,10.188 2.77,4.223 4.76,8.941 5.98,14.18 1.22,5.23 1.8,10.621 1.73,16.152 -0.09,5.769 -0.8,11.34 -2.16,16.738 -1.37,5.371 -3.49,10.172 -6.38,14.383 -2.88,4.188 -6.6,7.52 -11.18,9.988 -4.58,2.45 -10.13,3.629 -16.64,3.539 -6.51,-0.078 -12.02,-1.418 -16.52,-4 -4.52,-2.578 -8.16,-6.007 -10.92,-10.277 -2.78,-4.273 -4.76,-9.121 -5.98,-14.543 -1.22,-5.418 -1.79,-11.019 -1.72,-16.789 0.08,-5.539 0.8,-10.898 2.16,-16.109 z m -27.02,43.129 c 2.83,8.46 6.97,15.859 12.41,22.199 5.45,6.332 12.17,11.332 20.17,15 7.99,3.672 17.03,5.582 27.1,5.711 10.19,0.152 19.3,-1.52 27.34,-4.981 8.03,-3.457 14.84,-8.277 20.46,-14.457 5.61,-6.203 9.95,-13.48 13.01,-21.844 3.06,-8.386 4.66,-17.476 4.79,-27.296 0.12,-9.582 -1.24,-18.543 -4.07,-26.872 -2.83,-8.339 -6.96,-15.609 -12.41,-21.832 -5.45,-6.207 -12.15,-11.109 -20.07,-14.718 -7.95,-3.621 -17,-5.489 -27.2,-5.629 -10.08,-0.129 -19.16,1.5 -27.24,4.898 -8.11,3.383 -14.95,8.11 -20.56,14.18 -5.61,6.062 -9.95,13.23 -13.01,21.473 -3.05,8.257 -4.65,17.179 -4.78,26.757 -0.12,9.821 1.22,18.95 4.06,27.411" /><path
         id="path40"
         style="fill:#000000;fill-opacity:1;fill-rule:nonzero;stroke:none"
         d="m 3048.33,738.219 c -9.83,-8.797 -23.54,-13.297 -41.1,-13.528 -17.81,-0.25 -31.65,3.86 -41.54,12.329 -9.87,8.472 -14.94,21.671 -15.17,39.589 l -1.1,81.821 28.92,0.379 1.1,-81.797 c 0.05,-3.563 0.4,-7.051 1.06,-10.492 0.66,-3.418 2,-6.45 3.99,-9.059 2,-2.621 4.77,-4.742 8.29,-6.34 3.53,-1.621 8.24,-2.383 14.12,-2.301 10.33,0.141 17.42,2.539 21.28,7.2 3.88,4.64 5.74,11.89 5.62,21.71 l -1.1,81.809 28.92,0.391 1.09,-81.801 c 0.24,-17.809 -4.56,-31.117 -14.38,-39.91" /><path
         id="path42"
         style="fill:#000000;fill-opacity:1;fill-rule:nonzero;stroke:none"
         d="m 3115.22,860.641 56.1,-87.512 h 0.37 l -1.18,88.262 27.07,0.371 1.77,-131.551 -28.93,-0.402 -55.9,87.339 h -0.37 l 1.19,-88.066 -27.09,-0.363 -1.77,131.543 28.74,0.379" /><path
         id="path44"
         style="fill:#000000;fill-opacity:1;fill-rule:nonzero;stroke:none"
         d="m 3279.17,755.609 c 4.17,0.039 8.21,0.782 12.13,2.18 3.91,1.41 7.37,3.68 10.41,6.871 3.03,3.18 5.44,7.281 7.2,12.352 1.77,5.058 2.62,11.199 2.53,18.457 -0.1,6.633 -0.81,12.613 -2.19,17.941 -1.35,5.32 -3.54,9.871 -6.54,13.629 -3,3.77 -6.93,6.633 -11.81,8.602 -4.88,1.968 -10.89,2.898 -18.01,2.808 l -20.63,-0.289 1.11,-82.898 z m 0.58,107.243 c 8.48,0.117 16.38,-1.133 23.74,-3.731 7.34,-2.609 13.72,-6.57 19.13,-11.91 5.42,-5.332 9.68,-12.031 12.81,-20.09 3.11,-8.07 4.75,-17.562 4.89,-28.5 0.12,-9.582 -0.98,-18.441 -3.33,-26.582 -2.35,-8.137 -5.96,-15.187 -10.86,-21.148 -4.89,-5.961 -11.04,-10.68 -18.43,-14.149 -7.39,-3.5 -16.12,-5.293 -26.19,-5.433 l -56.73,-0.758 -1.78,131.539 56.75,0.762" /><path
         id="path46"
         style="fill:#ffffff;fill-opacity:1;fill-rule:nonzero;stroke:none"
         d="m 2384.79,4085.39 h 5.08 c -28.08,79.93 -103.54,137.29 -192.5,137.29 -88.95,0 -164.42,-57.36 -192.51,-137.29 h -16.97 c -63.13,0 -114.31,-51.18 -114.31,-114.31 v -27.72 h 625.51 v 27.72 c 0,63.13 -51.17,114.31 -114.3,114.31" /><path
         id="path48"
         style="fill:none;stroke:#000000;stroke-width:24.23189926;stroke-linecap:round;stroke-linejoin:round;stroke-miterlimit:10;stroke-dasharray:none;stroke-opacity:1"
         d="m 2384.79,4085.39 h 5.08 c -28.08,79.93 -103.54,137.29 -192.5,137.29 -88.95,0 -164.42,-57.36 -192.51,-137.29 h -16.97 c -63.13,0 -114.31,-51.18 -114.31,-114.31 v -27.72 h 625.51 v 27.72 c 0,63.13 -51.17,114.31 -114.3,114.31 z" /><path
         id="path50"
         style="fill:#b1daff;fill-opacity:1;fill-rule:nonzero;stroke:none"
         d="m 2370,4074.12 h 3.63 c -20.06,57.09 -73.96,98.06 -137.49,98.06 -63.54,0 -117.44,-40.97 -137.51,-98.06 h -12.12 c -45.09,0 -81.65,-36.55 -81.65,-81.65 v -19.79 h 446.79 v 19.79 c 0,45.1 -36.55,81.65 -81.65,81.65" /><path
         id="path52"
         style="fill:#ffffff;fill-opacity:1;fill-rule:nonzero;stroke:none"
         d="m 1454.79,1911.27 h 5.08 c -28.08,79.93 -103.55,137.29 -192.5,137.29 -88.95,0 -164.42,-57.36 -192.51,-137.29 h -16.97 c -63.132,0 -114.304,-51.17 -114.304,-114.32 v -27.7 h 625.504 v 27.7 c 0,63.15 -51.17,114.32 -114.3,114.32" /><path
         id="path54"
         style="fill:none;stroke:#000000;stroke-width:24.23189926;stroke-linecap:round;stroke-linejoin:round;stroke-miterlimit:10;stroke-dasharray:none;stroke-opacity:1"
         d="m 1454.79,1911.27 h 5.08 c -28.08,79.93 -103.55,137.29 -192.5,137.29 -88.95,0 -164.42,-57.36 -192.51,-137.29 h -16.97 c -63.132,0 -114.304,-51.17 -114.304,-114.32 v -27.7 h 625.504 v 27.7 c 0,63.15 -51.17,114.32 -114.3,114.32 z" /><path
         id="path56"
         style="fill:#b1daff;fill-opacity:1;fill-rule:nonzero;stroke:none"
         d="m 1440,1900 h 3.63 c -20.06,57.09 -73.96,98.07 -137.5,98.07 -63.53,0 -117.44,-40.98 -137.5,-98.07 h -12.12 c -45.09,0 -81.65,-36.55 -81.65,-81.65 v -19.8 h 446.79 v 19.8 c 0,45.1 -36.55,81.65 -81.65,81.65" /><path
         id="path58"
         style="fill:#ffffff;fill-opacity:1;fill-rule:nonzero;stroke:none"
         d="m 4036.09,3241.27 h 5.1 c -28.09,79.93 -103.55,137.29 -192.51,137.29 -88.95,0 -164.41,-57.36 -192.51,-137.29 h -16.96 c -63.14,0 -114.32,-51.18 -114.32,-114.31 v -27.71 h 625.52 v 27.71 c 0,63.13 -51.18,114.31 -114.32,114.31" /><path
         id="path60"
         style="fill:none;stroke:#000000;stroke-width:24.23189926;stroke-linecap:round;stroke-linejoin:round;stroke-miterlimit:10;stroke-dasharray:none;stroke-opacity:1"
         d="m 4036.09,3241.27 h 5.1 c -28.09,79.93 -103.55,137.29 -192.51,137.29 -88.95,0 -164.41,-57.36 -192.51,-137.29 h -16.96 c -63.14,0 -114.32,-51.18 -114.32,-114.31 v -27.71 h 625.52 v 27.71 c 0,63.13 -51.18,114.31 -114.32,114.31 z" /><path
         id="path62"
         style="fill:#b1daff;fill-opacity:1;fill-rule:nonzero;stroke:none"
         d="m 4021.31,3230 h 3.64 c -20.07,57.09 -73.96,98.06 -137.5,98.06 -63.54,0 -117.44,-40.97 -137.51,-98.06 h -12.12 c -45.1,0 -81.65,-36.55 -81.65,-81.65 v -19.8 h 446.79 v 19.8 c 0,45.1 -36.55,81.65 -81.65,81.65" /><path
         id="path64"
         style="fill:none;stroke:#000000;stroke-width:24.23189926;stroke-linecap:round;stroke-linejoin:round;stroke-miterlimit:4;stroke-dasharray:none;stroke-opacity:1"
         d="m 2980.37,2059.89 v -37.87 h -37.87" /><path
         id="path66"
         style="fill:none;stroke:#000000;stroke-width:24.23189926;stroke-linecap:round;stroke-linejoin:round;stroke-miterlimit:4;stroke-dasharray:76.8902, 76.8902;stroke-dashoffset:0;stroke-opacity:1"
         d="M 2865.62,2022.02 H 1827.6" /><path
         id="path68"
         style="fill:none;stroke:#000000;stroke-width:24.23189926;stroke-linecap:round;stroke-linejoin:round;stroke-miterlimit:4;stroke-dasharray:none;stroke-opacity:1"
         d="m 1789.15,2022.02 h -37.87 v 37.87" /><path
         id="path70"
         style="fill:none;stroke:#000000;stroke-width:24.23189926;stroke-linecap:round;stroke-linejoin:round;stroke-miterlimit:4;stroke-dasharray:75.5268, 75.5268;stroke-dashoffset:0;stroke-opacity:1"
         d="m 1751.28,2135.42 v 906.09 c 0,26.87 21.79,48.66 48.65,48.66 h 1131.79 c 26.87,0 48.65,-21.79 48.65,-48.66 v -943.85" /><path
         id="path72"
         style="fill:#74c0e1;fill-opacity:1;fill-rule:nonzero;stroke:none"
         d="M 3375.94,2341.84 H 2146.85 v 1019.49 c 0,26.87 21.77,48.66 48.65,48.66 h 1131.79 c 26.87,0 48.65,-21.79 48.65,-48.66 V 2341.84" /><path
         id="path74"
         style="fill:#ffffff;fill-opacity:1;fill-rule:nonzero;stroke:none"
         d="M 3131.87,2173.52 H 1902.77 V 3193 c 0,26.87 21.78,48.66 48.66,48.66 h 1131.78 c 26.88,0 48.66,-21.79 48.66,-48.66 V 2173.52" /><path
         id="path76"
         style="fill:none;stroke:#000000;stroke-width:24.23189926;stroke-linecap:round;stroke-linejoin:round;stroke-miterlimit:10;stroke-dasharray:none;stroke-opacity:1"
         d="M 3131.87,2173.52 H 1902.77 V 3193 c 0,26.87 21.78,48.66 48.66,48.66 h 1131.78 c 26.88,0 48.66,-21.79 48.66,-48.66 z" /><path
         id="path78"
         style="fill:#f1f6f8;fill-opacity:1;fill-rule:nonzero;stroke:none"
         d="M 3131.87,3034.37 H 1902.77 V 3193 c 0,26.87 21.78,48.66 48.66,48.66 h 1131.78 c 26.88,0 48.66,-21.79 48.66,-48.66 v -158.63" /><path
         id="path80"
         style="fill:none;stroke:#000000;stroke-width:24.23189926;stroke-linecap:round;stroke-linejoin:round;stroke-miterlimit:10;stroke-dasharray:none;stroke-opacity:1"
         d="M 3131.87,3034.37 H 1902.77 V 3193 c 0,26.87 21.78,48.66 48.66,48.66 h 1131.78 c 26.88,0 48.66,-21.79 48.66,-48.66 z" /><path
         id="path82"
         style="fill:none;stroke:#000000;stroke-width:24.23189926;stroke-linecap:round;stroke-linejoin:round;stroke-miterlimit:10;stroke-dasharray:none;stroke-opacity:1"
         d="m 2335.2,2489.18 54.19,-148.54" /><path
         id="path84"
         style="fill:none;stroke:#000000;stroke-width:24.23189926;stroke-linecap:round;stroke-linejoin:round;stroke-miterlimit:10;stroke-dasharray:none;stroke-opacity:1"
         d="m 2392.74,2499.66 50.8,-139.26" /><path
         id="path86"
         style="fill:none;stroke:#000000;stroke-width:24.23189926;stroke-linecap:round;stroke-linejoin:round;stroke-miterlimit:10;stroke-dasharray:none;stroke-opacity:1"
         d="M 2447.43,2481.91 2308.17,2431.1" /><path
         id="path88"
         style="fill:none;stroke:#000000;stroke-width:24.23189926;stroke-linecap:round;stroke-linejoin:round;stroke-miterlimit:10;stroke-dasharray:none;stroke-opacity:1"
         d="m 2467.19,2427.76 -129.97,-47.42" /><path
         id="path90"
         style="fill:none;stroke:#000000;stroke-width:27.04450035;stroke-linecap:round;stroke-linejoin:miter;stroke-miterlimit:10;stroke-dasharray:none;stroke-opacity:1"
         d="m 2558.03,2701.18 111.61,-109.03" /><path
         id="path92"
         style="fill:none;stroke:#000000;stroke-width:27.04450035;stroke-linecap:round;stroke-linejoin:miter;stroke-miterlimit:10;stroke-dasharray:none;stroke-opacity:1"
         d="m 2559.32,2590.86 109.03,111.62" /><path
         id="path94"
         style="fill:none;stroke:#000000;stroke-width:27.04450035;stroke-linecap:round;stroke-linejoin:miter;stroke-miterlimit:10;stroke-dasharray:none;stroke-opacity:1"
         d="m 2833.4,2704.41 111.61,-109.03" /><path
         id="path96"
         style="fill:none;stroke:#000000;stroke-width:27.04450035;stroke-linecap:round;stroke-linejoin:miter;stroke-miterlimit:10;stroke-dasharray:none;stroke-opacity:1"
         d="m 2834.69,2594.09 109.03,111.61" /><path
         id="path98"
         style="fill:#f1f6f8;fill-opacity:1;fill-rule:nonzero;stroke:none"
         d="m 2552.23,2236.09 c -1.32,112.72 88.98,205.17 201.7,206.49 v 0 c 112.71,1.32 205.16,-88.99 206.48,-201.7 l -408.18,-4.79" /><path
         id="path100"
         style="fill:none;stroke:#000000;stroke-width:24.23189926;stroke-linecap:round;stroke-linejoin:round;stroke-miterlimit:10;stroke-dasharray:none;stroke-opacity:1"
         d="m 2552.23,2236.09 c -1.32,112.72 88.98,205.17 201.7,206.49 v 0 c 112.71,1.32 205.16,-88.99 206.48,-201.7 z" /><path
         id="path102"
         style="fill:#feaaa8;fill-opacity:1;fill-rule:nonzero;stroke:none"
         d="m 2849.89,2091.59 v 0 c -33.82,-0.39 -61.54,26.7 -61.94,60.52 l -1.38,117.35 122.46,1.43 1.38,-117.35 c 0.39,-33.81 -26.7,-61.55 -60.52,-61.95" /><path
         id="path104"
         style="fill:none;stroke:#000000;stroke-width:24.23189926;stroke-linecap:round;stroke-linejoin:round;stroke-miterlimit:10;stroke-dasharray:none;stroke-opacity:1"
         d="m 2849.89,2091.59 v 0 c -33.82,-0.39 -61.54,26.7 -61.94,60.52 l -1.38,117.35 122.46,1.43 1.38,-117.35 c 0.39,-33.81 -26.7,-61.55 -60.52,-61.95 z" /><path
         id="path106"
         style="fill:#ffca04;fill-opacity:1;fill-rule:nonzero;stroke:none"
         d="m 2046.65,3129.48 c 0,-14.82 -12.01,-26.82 -26.83,-26.82 -14.81,0 -26.82,12 -26.82,26.82 0,14.82 12.01,26.82 26.82,26.82 14.82,0 26.83,-12 26.83,-26.82" /><path
         id="path108"
         style="fill:#feaaa8;fill-opacity:1;fill-rule:nonzero;stroke:none"
         d="m 2178.34,3129.48 c 0,-14.82 -12.01,-26.82 -26.83,-26.82 -14.81,0 -26.82,12 -26.82,26.82 0,14.82 12.01,26.82 26.82,26.82 14.82,0 26.83,-12 26.83,-26.82" /><path
         id="path110"
         style="fill:#b1daff;fill-opacity:1;fill-rule:nonzero;stroke:none"
         d="m 2310.03,3129.48 c 0,-14.82 -12.01,-26.82 -26.83,-26.82 -14.81,0 -26.82,12 -26.82,26.82 0,14.82 12.01,26.82 26.82,26.82 14.82,0 26.83,-12 26.83,-26.82" /><path
         id="path112"
         style="fill:#000000;fill-opacity:1;fill-rule:nonzero;stroke:none"
         d="m 2019.82,3168.93 c -21.74,0 -39.44,-17.69 -39.44,-39.45 0,-21.75 17.7,-39.45 39.44,-39.45 21.76,0 39.46,17.7 39.46,39.45 0,21.76 -17.7,39.45 -39.46,39.45 z m 0,-12.63 c 14.83,0 26.83,-12 26.83,-26.82 0,-14.82 -12,-26.82 -26.83,-26.82 -14.81,0 -26.82,12 -26.82,26.82 0,14.82 12.01,26.82 26.82,26.82" /><path
         id="path114"
         style="fill:#000000;fill-opacity:1;fill-rule:nonzero;stroke:none"
         d="m 2151.51,3168.93 c -21.74,0 -39.44,-17.69 -39.44,-39.45 0,-21.75 17.7,-39.45 39.44,-39.45 21.76,0 39.46,17.7 39.46,39.45 0,21.76 -17.7,39.45 -39.46,39.45 z m 0,-12.63 c 14.82,0 26.83,-12 26.83,-26.82 0,-14.82 -12.01,-26.82 -26.83,-26.82 -14.81,0 -26.82,12 -26.82,26.82 0,14.82 12.01,26.82 26.82,26.82" /><path
         id="path116"
         style="fill:#000000;fill-opacity:1;fill-rule:nonzero;stroke:none"
         d="m 2283.2,3168.93 c -21.74,0 -39.45,-17.69 -39.45,-39.45 0,-21.75 17.71,-39.45 39.45,-39.45 21.76,0 39.46,17.7 39.46,39.45 0,21.76 -17.7,39.45 -39.46,39.45 z m 0,-12.63 c 14.82,0 26.83,-12 26.83,-26.82 0,-14.82 -12.01,-26.82 -26.83,-26.82 -14.81,0 -26.82,12 -26.82,26.82 0,14.82 12.01,26.82 26.82,26.82" /><path
         id="path118"
         style="fill:#000000;fill-opacity:1;fill-rule:nonzero;stroke:none"
         d="m 1787.66,3481.27 49.68,-64.74 -65.99,-50.66 -49.69,64.74 z m -264.33,83.69 c -4.78,16.38 -6.29,32.58 -4.57,48.61 1.74,16.02 6.85,31.41 15.33,46.17 8.5,14.75 20.45,28.05 35.86,39.88 19.9,15.27 38.59,25.29 56.1,30.04 17.5,4.76 33.45,6.18 47.82,4.3 14.36,-1.89 26.9,-6.19 37.6,-12.89 10.72,-6.7 19.19,-14.12 25.42,-22.24 10.33,-13.45 17.08,-25.87 20.25,-37.24 3.15,-11.38 4.51,-22.14 4.06,-32.28 -0.45,-10.15 -2.16,-19.81 -5.14,-29 -2.95,-9.18 -5.58,-18.09 -7.85,-26.74 -2.27,-8.65 -3.43,-17.44 -3.47,-26.37 -0.04,-8.95 2.59,-18.05 7.93,-27.31 l 12.26,-15.97 -56.75,-43.57 -14.52,18.92 c -8.41,12.7 -13.84,24.56 -16.3,35.59 -2.45,11.03 -3.36,21.36 -2.72,30.97 0.63,9.62 2.14,18.67 4.52,27.19 2.37,8.5 4.34,16.68 5.87,24.54 1.53,7.86 1.84,15.45 0.91,22.75 -0.92,7.31 -4.45,14.63 -10.52,21.98 -9.89,12.89 -20.36,20 -31.41,21.33 -11.03,1.32 -22.15,-2.32 -33.37,-10.92 -7.56,-5.81 -12.95,-12.28 -16.16,-19.42 -3.2,-7.13 -4.68,-14.5 -4.41,-22.09 0.25,-7.61 2.09,-15.34 5.46,-23.21 3.37,-7.88 7.96,-15.6 13.76,-23.17 l -61.79,-47.43 c -11.34,15.35 -19.39,31.21 -24.17,47.58" /><path
         id="path120"
         style="fill:#000000;fill-opacity:1;fill-rule:nonzero;stroke:none"
         d="m 1719.18,3269.43 48.76,-6.4 -6.54,-49.71 -48.76,6.41 z m -148.29,-76.96 c -9.01,4.94 -16.56,11.2 -22.65,18.76 -6.1,7.57 -10.48,16.3 -13.14,26.21 -2.68,9.9 -3.24,20.66 -1.72,32.27 1.97,14.99 5.66,27.22 11.1,36.71 5.43,9.48 11.62,16.88 18.54,22.2 6.94,5.31 14.11,8.82 21.52,10.54 7.43,1.7 14.19,2.15 20.3,1.35 10.13,-1.33 18.3,-3.75 24.5,-7.24 6.21,-3.5 11.37,-7.51 15.49,-12.03 4.13,-4.52 7.51,-9.36 10.16,-14.54 2.65,-5.18 5.33,-10.09 8.05,-14.75 2.72,-4.65 5.97,-8.89 9.77,-12.71 3.79,-3.83 8.79,-6.58 15.01,-8.26 l 12.03,-1.58 -5.62,-42.74 -14.24,1.88 c -8.98,1.82 -16.37,4.56 -22.12,8.22 -5.74,3.65 -10.52,7.66 -14.35,12.03 -3.83,4.37 -7.05,8.86 -9.66,13.5 -2.62,4.64 -5.27,8.96 -7.96,12.97 -2.69,4 -5.79,7.36 -9.3,10.08 -3.51,2.72 -8.13,4.34 -13.86,4.88 -9.7,1.27 -17.19,-0.15 -22.47,-4.29 -5.25,-4.14 -8.45,-10.43 -9.56,-18.87 -0.75,-5.7 -0.28,-10.75 1.39,-15.17 1.68,-4.4 4.19,-8.17 7.53,-11.29 3.36,-3.12 7.42,-5.65 12.21,-7.56 4.8,-1.92 10.04,-3.25 15.74,-4.01 l -6.12,-46.53 c -11.37,1.7 -21.56,5.02 -30.57,9.97" /><path
         id="path122"
         style="fill:#000000;fill-opacity:1;fill-rule:nonzero;stroke:none"
         d="m 2010.84,3433.63 0.66,-49.17 -50.12,-0.68 -0.67,49.17 z m -97.47,135.7 c 3.59,9.63 8.71,17.99 15.32,25.11 6.6,7.12 14.62,12.7 24.04,16.77 9.42,4.06 19.98,6.17 31.68,6.32 15.12,0.2 27.77,-1.69 37.93,-5.7 10.16,-4.01 18.38,-9.07 24.64,-15.16 6.26,-6.1 10.76,-12.69 13.52,-19.79 2.75,-7.09 4.17,-13.73 4.26,-19.9 0.13,-10.22 -1.08,-18.65 -3.65,-25.28 -2.57,-6.64 -5.81,-12.33 -9.67,-17.06 -3.89,-4.74 -8.19,-8.78 -12.94,-12.14 -4.74,-3.37 -9.23,-6.72 -13.43,-10.08 -4.23,-3.36 -7.94,-7.19 -11.19,-11.49 -3.25,-4.3 -5.25,-9.65 -6.02,-16.05 l 0.17,-12.13 -43.1,-0.58 -0.19,14.37 c 0.51,9.16 2.16,16.85 4.95,23.06 2.79,6.22 6.07,11.53 9.84,15.94 3.78,4.41 7.77,8.24 11.98,11.5 4.22,3.24 8.12,6.49 11.69,9.73 3.58,3.24 6.46,6.8 8.65,10.66 2.18,3.85 3.12,8.66 2.84,14.41 -0.13,9.79 -2.63,16.99 -7.48,21.62 -4.86,4.61 -11.54,6.86 -20.05,6.75 -5.74,-0.08 -10.69,-1.25 -14.81,-3.55 -4.12,-2.29 -7.48,-5.32 -10.09,-9.07 -2.61,-3.77 -4.52,-8.16 -5.74,-13.18 -1.2,-5.03 -1.76,-10.4 -1.69,-16.14 l -46.94,-0.63 c 0.06,11.49 1.89,22.06 5.48,31.69" /><path
         id="path124"
         style="fill:#000000;fill-opacity:1;fill-rule:nonzero;stroke:none"
         d="m 4587.13,2141.87 h -196.48 c -4.74,0 -8.59,-3.84 -8.59,-8.6 0,-4.74 3.85,-8.59 8.59,-8.59 h 196.48 c 4.75,0 8.6,3.85 8.6,8.59 0,4.76 -3.85,8.6 -8.6,8.6" /><path
         id="path126"
         style="fill:#000000;fill-opacity:1;fill-rule:nonzero;stroke:none"
         d="m 4328.12,2141.9 h -38.39 c -4.75,0 -8.6,-3.84 -8.6,-8.59 0,-4.75 3.85,-8.59 8.6,-8.59 h 38.39 c 4.74,0 8.6,3.84 8.6,8.59 0,4.75 -3.86,8.59 -8.6,8.59" /><path
         id="path128"
         style="fill:#000000;fill-opacity:1;fill-rule:nonzero;stroke:none"
         d="m 4341.32,2073.41 c 0,-4.75 -3.86,-8.6 -8.61,-8.6 h -42.96 c -4.75,0 -8.6,3.85 -8.6,8.6 0,4.75 3.85,8.6 8.6,8.6 h 42.96 c 4.75,0 8.61,-3.85 8.61,-8.6 z m 85.95,0 c 0,-4.75 -3.85,-8.6 -8.6,-8.6 h -42.98 c -4.74,0 -8.59,3.85 -8.59,8.6 0,4.75 3.85,8.6 8.59,8.6 h 42.98 c 4.75,0 8.6,-3.85 8.6,-8.6 z m 67.54,0 c 0,-4.75 -3.83,-8.6 -8.59,-8.6 h -24.57 c -4.75,0 -8.59,3.85 -8.59,8.6 0,4.75 3.84,8.6 8.59,8.6 h 24.57 c 4.76,0 8.59,-3.85 8.59,-8.6" /><path
         id="path130"
         style="fill:#000000;fill-opacity:1;fill-rule:nonzero;stroke:none"
         d="m 4623.82,1964.56 c -4.75,0 -8.6,-3.85 -8.6,-8.59 v -19.94 c 0,-4.75 3.85,-8.61 8.6,-8.61 4.74,0 8.59,3.86 8.59,8.61 v 19.94 c 0,4.74 -3.85,8.59 -8.59,8.59" /><path
         id="path132"
         style="fill:#000000;fill-opacity:1;fill-rule:nonzero;stroke:none"
         d="m 4601.32,1984.56 h -19.93 c -4.75,0 -8.6,-3.86 -8.6,-8.6 0,-4.75 3.85,-8.6 8.6,-8.6 h 19.93 c 4.74,0 8.59,3.85 8.59,8.6 0,4.74 -3.85,8.6 -8.59,8.6" /><path
         id="path134"
         style="fill:#000000;fill-opacity:1;fill-rule:nonzero;stroke:none"
         d="m 4623.82,2025.87 c -4.75,0 -8.6,-3.85 -8.6,-8.59 v -19.94 c 0,-4.74 3.85,-8.59 8.6,-8.59 4.74,0 8.59,3.85 8.59,8.59 v 19.94 c 0,4.74 -3.85,8.59 -8.59,8.59" /><path
         id="path136"
         style="fill:#000000;fill-opacity:1;fill-rule:nonzero;stroke:none"
         d="m 4666.26,1985.93 h -19.94 c -4.75,0 -8.6,-3.85 -8.6,-8.6 0,-4.74 3.85,-8.59 8.6,-8.59 h 19.94 c 4.74,0 8.59,3.85 8.59,8.59 0,4.75 -3.85,8.6 -8.59,8.6" /><path
         id="path138"
         style="fill:#000000;fill-opacity:1;fill-rule:nonzero;stroke:none"
         d="m 1596.1,4147.23 c -4.74,0 -8.59,-3.85 -8.59,-8.6 v -19.94 c 0,-4.74 3.85,-8.59 8.59,-8.59 4.75,0 8.6,3.85 8.6,8.59 v 19.94 c 0,4.75 -3.85,8.6 -8.6,8.6" /><path
         id="path140"
         style="fill:#000000;fill-opacity:1;fill-rule:nonzero;stroke:none"
         d="m 1573.6,4167.23 h -19.94 c -4.74,0 -8.59,-3.85 -8.59,-8.6 0,-4.74 3.85,-8.59 8.59,-8.59 h 19.94 c 4.75,0 8.6,3.85 8.6,8.59 0,4.75 -3.85,8.6 -8.6,8.6" /><path
         id="path142"
         style="fill:#000000;fill-opacity:1;fill-rule:nonzero;stroke:none"
         d="m 1596.1,4208.53 c -4.74,0 -8.59,-3.85 -8.59,-8.59 v -19.93 c 0,-4.74 3.85,-8.59 8.59,-8.59 4.75,0 8.6,3.85 8.6,8.59 v 19.93 c 0,4.74 -3.85,8.59 -8.6,8.59" /><path
         id="path144"
         style="fill:#000000;fill-opacity:1;fill-rule:nonzero;stroke:none"
         d="m 1638.54,4168.59 h -19.95 c -4.74,0 -8.59,-3.84 -8.59,-8.59 0,-4.75 3.85,-8.59 8.59,-8.59 h 19.95 c 4.74,0 8.6,3.84 8.6,8.59 0,4.75 -3.86,8.59 -8.6,8.59" /><path
         id="path146"
         style="fill:#000000;fill-opacity:1;fill-rule:nonzero;stroke:none"
         d="m 2859.09,4238.14 h 196.49 c 4.74,0 8.59,3.84 8.59,8.59 0,4.75 -3.85,8.59 -8.59,8.59 h -196.49 c -4.74,0 -8.59,-3.84 -8.59,-8.59 0,-4.75 3.85,-8.59 8.59,-8.59" /><path
         id="path148"
         style="fill:#000000;fill-opacity:1;fill-rule:nonzero;stroke:none"
         d="m 3118.11,4238.1 h 38.38 c 4.76,0 8.61,3.85 8.61,8.6 0,4.74 -3.85,8.59 -8.61,8.59 h -38.38 c -4.75,0 -8.6,-3.85 -8.6,-8.59 0,-4.75 3.85,-8.6 8.6,-8.6" /><path
         id="path150"
         style="fill:#000000;fill-opacity:1;fill-rule:nonzero;stroke:none"
         d="m 3104.91,4306.59 c 0,4.75 3.85,8.6 8.6,8.6 h 42.97 c 4.75,0 8.6,-3.85 8.6,-8.6 0,-4.74 -3.85,-8.59 -8.6,-8.59 h -42.97 c -4.75,0 -8.6,3.85 -8.6,8.59 z m -85.95,0 c 0,4.75 3.84,8.6 8.59,8.6 h 42.98 c 4.74,0 8.59,-3.85 8.59,-8.6 0,-4.74 -3.85,-8.59 -8.59,-8.59 h -42.98 c -4.75,0 -8.59,3.85 -8.59,8.59 z m -67.55,0 c 0,4.75 3.84,8.6 8.59,8.6 h 24.58 c 4.75,0 8.59,-3.85 8.59,-8.6 0,-4.74 -3.84,-8.59 -8.59,-8.59 H 2960 c -4.75,0 -8.59,3.85 -8.59,8.59" /><path
         id="path152"
         style="fill:#000000;fill-opacity:1;fill-rule:nonzero;stroke:none"
         d="m 4348.48,3993.93 c 4.74,0 8.59,3.84 8.59,8.59 v 19.94 c 0,4.75 -3.85,8.6 -8.59,8.6 -4.75,0 -8.6,-3.85 -8.6,-8.6 v -19.94 c 0,-4.75 3.85,-8.59 8.6,-8.59" /><path
         id="path154"
         style="fill:#000000;fill-opacity:1;fill-rule:nonzero;stroke:none"
         d="m 4370.98,3973.93 h 19.93 c 4.74,0 8.59,3.85 8.59,8.6 0,4.75 -3.85,8.59 -8.59,8.59 h -19.93 c -4.75,0 -8.6,-3.84 -8.6,-8.59 0,-4.75 3.85,-8.6 8.6,-8.6" /><path
         id="path156"
         style="fill:#000000;fill-opacity:1;fill-rule:nonzero;stroke:none"
         d="m 4348.48,3932.62 c 4.74,0 8.59,3.84 8.59,8.6 v 19.92 c 0,4.75 -3.85,8.6 -8.59,8.6 -4.75,0 -8.6,-3.85 -8.6,-8.6 v -19.92 c 0,-4.76 3.85,-8.6 8.6,-8.6" /><path
         id="path158"
         style="fill:#000000;fill-opacity:1;fill-rule:nonzero;stroke:none"
         d="m 4306.04,3972.55 h 19.94 c 4.74,0 8.59,3.85 8.59,8.6 0,4.75 -3.85,8.6 -8.59,8.6 h -19.94 c -4.75,0 -8.6,-3.85 -8.6,-8.6 0,-4.75 3.85,-8.6 8.6,-8.6" /><path
         id="path160"
         style="fill:#000000;fill-opacity:1;fill-rule:nonzero;stroke:none"
         d="M 1173.52,3670 H 1370 c 4.75,0 8.59,3.85 8.59,8.59 0,4.75 -3.84,8.6 -8.59,8.6 h -196.48 c -4.75,0 -8.6,-3.85 -8.6,-8.6 0,-4.74 3.85,-8.59 8.6,-8.59" /><path
         id="path162"
         style="fill:#000000;fill-opacity:1;fill-rule:nonzero;stroke:none"
         d="m 1072.59,3669.97 h 38.4 c 4.74,0 8.59,3.84 8.59,8.59 0,4.75 -3.85,8.59 -8.59,8.59 h -38.4 c -4.75,0 -8.6,-3.84 -8.6,-8.59 0,-4.75 3.85,-8.59 8.6,-8.59" /><path
         id="path164"
         style="fill:#000000;fill-opacity:1;fill-rule:nonzero;stroke:none"
         d="m 4270,3268.51 c 0,0 4.08,-29.18 -30,-28.51 0,0 29.29,-0.3 28.51,-27.69 0,0 2.63,21.55 29.5,26.36 0,0 -22.71,-5.2 -28.01,29.84" /><path
         id="path166"
         style="fill:#000000;fill-opacity:1;fill-rule:nonzero;stroke:none"
         d="m 2650,4328.51 c 0,0 4.08,-29.18 -30,-28.51 0,0 29.29,-0.3 28.51,-27.69 0,0 2.63,21.55 29.5,26.37 0,0 -22.71,-5.21 -28.01,29.83" /><path
         id="path168"
         style="fill:#000000;fill-opacity:1;fill-rule:nonzero;stroke:none"
         d="m 1021.99,3279.84 c 0,0 4.08,-29.18 -29.998,-28.52 0,0 29.288,-0.29 28.498,-27.68 0,0 2.64,21.55 29.51,26.36 0,0 -22.71,-5.21 -28.01,29.84" /><path
         id="path170"
         style="fill:#000000;fill-opacity:1;fill-rule:nonzero;stroke:none"
         d="m 1308.54,2129.06 c 0,-8.01 6.52,-14.53 14.54,-14.53 8,0 14.52,6.52 14.52,14.53 0,8.01 -6.52,14.52 -14.52,14.52 -8.02,0 -14.54,-6.51 -14.54,-14.52 z m -14.26,0 c 0,15.87 12.92,28.79 28.8,28.79 15.88,0 28.79,-12.92 28.79,-28.79 0,-15.88 -12.91,-28.8 -28.79,-28.8 -15.88,0 -28.8,12.92 -28.8,28.8" /><path
         id="path172"
         style="fill:#000000;fill-opacity:1;fill-rule:nonzero;stroke:none"
         d="m 3772.59,2690.62 c 0,-8.01 6.51,-14.52 14.53,-14.52 8.01,0 14.52,6.51 14.52,14.52 0,8.01 -6.51,14.53 -14.52,14.53 -8.02,0 -14.53,-6.52 -14.53,-14.53 z m -14.27,0 c 0,15.88 12.92,28.79 28.8,28.79 15.88,0 28.79,-12.91 28.79,-28.79 0,-15.87 -12.91,-28.79 -28.79,-28.79 -15.88,0 -28.8,12.92 -28.8,28.79" /><path
         id="path174"
         style="fill:#000000;fill-opacity:1;fill-rule:nonzero;stroke:none"
         d="m 2898.13,1829.82 c 0,-8 6.52,-14.52 14.54,-14.52 8,0 14.52,6.52 14.52,14.52 0,8.02 -6.52,14.54 -14.52,14.54 -8.02,0 -14.54,-6.52 -14.54,-14.54 z m -14.26,0 c 0,15.88 12.92,28.8 28.8,28.8 15.87,0 28.79,-12.92 28.79,-28.8 0,-15.86 -12.92,-28.78 -28.79,-28.78 -15.88,0 -28.8,12.92 -28.8,28.78" /><path
         id="path176"
         style="fill:#000000;fill-opacity:1;fill-rule:nonzero;stroke:none"
         d="m 2441.09,3771.53 c 0,-8.01 6.52,-14.53 14.53,-14.53 8,0 14.53,6.52 14.53,14.53 0,8.01 -6.53,14.52 -14.53,14.52 -8.01,0 -14.53,-6.51 -14.53,-14.52 z m -14.27,0 c 0,15.87 12.92,28.79 28.8,28.79 15.87,0 28.78,-12.92 28.78,-28.79 0,-15.88 -12.91,-28.8 -28.78,-28.8 -15.88,0 -28.8,12.92 -28.8,28.8" /><path
         id="path178"
         style="fill:#000000;fill-opacity:1;fill-rule:nonzero;stroke:none"
         d="m 3438.74,3913.12 h -31.86 c -3.95,0 -7.14,-3.2 -7.14,-7.13 0,-3.94 3.19,-7.14 7.14,-7.14 h 31.86 c 3.95,0 7.14,3.2 7.14,7.14 0,3.93 -3.19,7.13 -7.14,7.13" /><path
         id="path180"
         style="fill:#000000;fill-opacity:1;fill-rule:nonzero;stroke:none"
         d="m 3653.72,3913.09 h -163.08 c -3.94,0 -7.13,-3.19 -7.13,-7.13 0,-3.94 3.19,-7.14 7.13,-7.14 h 163.08 c 3.94,0 7.14,3.2 7.14,7.14 0,3.94 -3.2,7.13 -7.14,7.13" /><path
         id="path182"
         style="fill:#000000;fill-opacity:1;fill-rule:nonzero;stroke:none"
         d="m 3449.7,3856.27 c 0,-3.94 -3.21,-7.13 -7.14,-7.13 h -35.68 c -3.93,0 -7.12,3.19 -7.12,7.13 0,3.94 3.19,7.13 7.12,7.13 h 35.68 c 3.93,0 7.14,-3.19 7.14,-7.13 z m 71.34,0 c 0,-3.94 -3.2,-7.13 -7.14,-7.13 h -35.67 c -3.94,0 -7.14,3.19 -7.14,7.13 0,3.94 3.2,7.13 7.14,7.13 h 35.67 c 3.94,0 7.14,-3.19 7.14,-7.13 z m 56.06,0 c 0,-3.94 -3.19,-7.13 -7.13,-7.13 h -20.4 c -3.94,0 -7.14,3.19 -7.14,7.13 0,3.94 3.2,7.13 7.14,7.13 h 20.4 c 3.94,0 7.13,-3.19 7.13,-7.13" /><path
         id="path184"
         style="fill:#000000;fill-opacity:1;fill-rule:nonzero;stroke:none"
         d="m 1459.79,2398.83 c -3.93,0 -7.13,-3.2 -7.13,-7.13 v -16.55 c 0,-3.95 3.2,-7.14 7.13,-7.14 3.94,0 7.13,3.19 7.13,7.14 v 16.55 c 0,3.93 -3.19,7.13 -7.13,7.13" /><path
         id="path186"
         style="fill:#000000;fill-opacity:1;fill-rule:nonzero;stroke:none"
         d="m 1441.12,2415.43 h -16.54 c -3.95,0 -7.14,-3.19 -7.14,-7.14 0,-3.93 3.19,-7.13 7.14,-7.13 h 16.54 c 3.94,0 7.14,3.2 7.14,7.13 0,3.95 -3.2,7.14 -7.14,7.14" /><path
         id="path188"
         style="fill:#000000;fill-opacity:1;fill-rule:nonzero;stroke:none"
         d="m 1459.79,2449.72 c -3.93,0 -7.13,-3.2 -7.13,-7.14 v -16.54 c 0,-3.94 3.2,-7.13 7.13,-7.13 3.94,0 7.13,3.19 7.13,7.13 v 16.54 c 0,3.94 -3.19,7.14 -7.13,7.14" /><path
         id="path190"
         style="fill:#000000;fill-opacity:1;fill-rule:nonzero;stroke:none"
         d="m 1495.02,2416.57 h -16.55 c -3.94,0 -7.13,-3.19 -7.13,-7.14 0,-3.93 3.19,-7.13 7.13,-7.13 h 16.55 c 3.94,0 7.13,3.2 7.13,7.13 0,3.95 -3.19,7.14 -7.13,7.14" /><path
         id="path192"
         style="fill:#000000;fill-opacity:1;fill-rule:nonzero;stroke:none"
         d="m 3661.88,2948.96 c -3.93,0 -7.12,-3.19 -7.12,-7.13 v -16.56 c 0,-3.94 3.19,-7.13 7.12,-7.13 3.95,0 7.14,3.19 7.14,7.13 v 16.56 c 0,3.94 -3.19,7.13 -7.14,7.13" /><path
         id="path194"
         style="fill:#000000;fill-opacity:1;fill-rule:nonzero;stroke:none"
         d="m 3643.22,2965.55 h -16.55 c -3.94,0 -7.13,-3.19 -7.13,-7.13 0,-3.94 3.19,-7.13 7.13,-7.13 h 16.55 c 3.94,0 7.13,3.19 7.13,7.13 0,3.94 -3.19,7.13 -7.13,7.13" /><path
         id="path196"
         style="fill:#000000;fill-opacity:1;fill-rule:nonzero;stroke:none"
         d="m 3661.88,2999.84 c -3.93,0 -7.12,-3.19 -7.12,-7.13 v -16.54 c 0,-3.94 3.19,-7.13 7.12,-7.13 3.95,0 7.14,3.19 7.14,7.13 v 16.54 c 0,3.94 -3.19,7.13 -7.14,7.13" /><path
         id="path198"
         style="fill:#000000;fill-opacity:1;fill-rule:nonzero;stroke:none"
         d="m 3697.11,2966.7 h -16.54 c -3.95,0 -7.14,-3.2 -7.14,-7.13 0,-3.95 3.19,-7.14 7.14,-7.14 h 16.54 c 3.94,0 7.14,3.19 7.14,7.14 0,3.93 -3.2,7.13 -7.14,7.13" /><path
         id="path200"
         style="fill:#000000;fill-opacity:1;fill-rule:nonzero;stroke:none"
         d="m 2784.59,3637.01 c -3.95,0 -7.14,-3.19 -7.14,-7.13 v -16.55 c 0,-3.95 3.19,-7.14 7.14,-7.14 3.94,0 7.13,3.19 7.13,7.14 v 16.55 c 0,3.94 -3.19,7.13 -7.13,7.13" /><path
         id="path202"
         style="fill:#000000;fill-opacity:1;fill-rule:nonzero;stroke:none"
         d="m 2765.92,3653.61 h -16.54 c -3.95,0 -7.14,-3.19 -7.14,-7.14 0,-3.94 3.19,-7.13 7.14,-7.13 h 16.54 c 3.93,0 7.13,3.19 7.13,7.13 0,3.95 -3.2,7.14 -7.13,7.14" /><path
         id="path204"
         style="fill:#000000;fill-opacity:1;fill-rule:nonzero;stroke:none"
         d="m 2784.59,3687.9 c -3.95,0 -7.14,-3.19 -7.14,-7.13 v -16.54 c 0,-3.95 3.19,-7.14 7.14,-7.14 3.94,0 7.13,3.19 7.13,7.14 v 16.54 c 0,3.94 -3.19,7.13 -7.13,7.13" /><path
         id="path206"
         style="fill:#000000;fill-opacity:1;fill-rule:nonzero;stroke:none"
         d="m 2819.81,3654.75 h -16.55 c -3.93,0 -7.13,-3.19 -7.13,-7.13 0,-3.94 3.2,-7.14 7.13,-7.14 h 16.55 c 3.94,0 7.13,3.2 7.13,7.14 0,3.94 -3.19,7.13 -7.13,7.13" /><path
         id="path208"
         style="fill:#000000;fill-opacity:1;fill-rule:nonzero;stroke:none"
         d="m 3266.48,2074.64 c -3.93,0 -7.12,-3.19 -7.12,-7.13 v -16.55 c 0,-3.95 3.19,-7.14 7.12,-7.14 3.95,0 7.14,3.19 7.14,7.14 v 16.55 c 0,3.94 -3.19,7.13 -7.14,7.13" /><path
         id="path210"
         style="fill:#000000;fill-opacity:1;fill-rule:nonzero;stroke:none"
         d="m 3247.82,2091.23 h -16.55 c -3.94,0 -7.13,-3.18 -7.13,-7.13 0,-3.94 3.19,-7.13 7.13,-7.13 h 16.55 c 3.94,0 7.13,3.19 7.13,7.13 0,3.95 -3.19,7.13 -7.13,7.13" /><path
         id="path212"
         style="fill:#000000;fill-opacity:1;fill-rule:nonzero;stroke:none"
         d="m 3266.48,2125.53 c -3.93,0 -7.12,-3.2 -7.12,-7.14 v -16.53 c 0,-3.95 3.19,-7.14 7.12,-7.14 3.95,0 7.14,3.19 7.14,7.14 v 16.53 c 0,3.94 -3.19,7.14 -7.14,7.14" /><path
         id="path214"
         style="fill:#000000;fill-opacity:1;fill-rule:nonzero;stroke:none"
         d="m 3301.72,2092.37 h -16.55 c -3.94,0 -7.13,-3.19 -7.13,-7.13 0,-3.94 3.19,-7.13 7.13,-7.13 h 16.55 c 3.93,0 7.13,3.19 7.13,7.13 0,3.94 -3.2,7.13 -7.13,7.13" /><path
         id="path216"
         style="fill:#000000;fill-opacity:1;fill-rule:nonzero;stroke:none"
         d="m 3655.84,2305.22 h 163.08 c 3.94,0 7.13,3.2 7.13,7.14 0,3.94 -3.19,7.13 -7.13,7.13 h -163.08 c -3.94,0 -7.13,-3.19 -7.13,-7.13 0,-3.94 3.19,-7.14 7.13,-7.14" /><path
         id="path218"
         style="fill:#000000;fill-opacity:1;fill-rule:nonzero;stroke:none"
         d="m 3572.07,2305.2 h 31.87 c 3.93,0 7.12,3.19 7.12,7.13 0,3.94 -3.19,7.13 -7.12,7.13 h -31.87 c -3.94,0 -7.14,-3.19 -7.14,-7.13 0,-3.94 3.2,-7.13 7.14,-7.13" /><path
         id="path220"
         style="fill:#000000;fill-opacity:1;fill-rule:nonzero;stroke:none"
         d="m 1504.57,1604.81 h 163.08 c 3.93,0 7.13,3.2 7.13,7.13 0,3.95 -3.2,7.14 -7.13,7.14 h -163.08 c -3.94,0 -7.14,-3.19 -7.14,-7.14 0,-3.93 3.2,-7.13 7.14,-7.13" /><path
         id="path222"
         style="fill:#000000;fill-opacity:1;fill-rule:nonzero;stroke:none"
         d="m 1420.8,1604.79 h 31.87 c 3.93,0 7.12,3.19 7.12,7.13 0,3.94 -3.19,7.13 -7.12,7.13 h -31.87 c -3.94,0 -7.14,-3.19 -7.14,-7.13 0,-3.94 3.2,-7.13 7.14,-7.13" /><path
         id="path224"
         style="fill:#000000;fill-opacity:1;fill-rule:nonzero;stroke:none"
         d="m 3336.09,1907.23 c -4.74,0 -8.59,-3.85 -8.59,-8.6 v -19.94 c 0,-4.75 3.85,-8.6 8.59,-8.6 4.75,0 8.6,3.85 8.6,8.6 v 19.94 c 0,4.75 -3.85,8.6 -8.6,8.6" /><path
         id="path226"
         style="fill:#000000;fill-opacity:1;fill-rule:nonzero;stroke:none"
         d="m 3313.59,1927.22 h -19.93 c -4.74,0 -8.59,-3.85 -8.59,-8.6 0,-4.74 3.85,-8.59 8.59,-8.59 h 19.93 c 4.75,0 8.6,3.85 8.6,8.59 0,4.75 -3.85,8.6 -8.6,8.6" /><path
         id="path228"
         style="fill:#000000;fill-opacity:1;fill-rule:nonzero;stroke:none"
         d="m 3336.09,1968.54 c -4.74,0 -8.59,-3.85 -8.59,-8.6 v -19.93 c 0,-4.75 3.85,-8.59 8.59,-8.59 4.75,0 8.6,3.84 8.6,8.59 v 19.93 c 0,4.75 -3.85,8.6 -8.6,8.6" /><path
         id="path230"
         style="fill:#000000;fill-opacity:1;fill-rule:nonzero;stroke:none"
         d="m 3378.54,1928.59 h -19.95 c -4.74,0 -8.59,-3.84 -8.59,-8.59 0,-4.75 3.85,-8.59 8.59,-8.59 h 19.95 c 4.74,0 8.59,3.84 8.59,8.59 0,4.75 -3.85,8.59 -8.59,8.59" /><path
         id="path232"
         style="fill:#1d262d;fill-opacity:1;fill-rule:nonzero;stroke:none"
         d="m 2601.04,345.352 c -4.32,-4.43 -8.03,-9.313 -11.08,-14.532 l -4.65,2.41 c -0.67,2.969 -3.49,5.02 -6.59,4.661 -3.31,-0.391 -5.67,-3.391 -5.29,-6.7 0.39,-3.312 3.39,-5.671 6.7,-5.281 0.65,0.07 1.27,0.25 1.83,0.52 l 4.51,-2.348 c -2.51,-5.543 -4.32,-11.383 -5.39,-17.434 l 7.47,-1.316 c 2.3,13.059 8.5,25.066 17.92,34.727 l -5.43,5.293" /><path
         id="path234"
         style="fill:#1d262d;fill-opacity:1;fill-rule:nonzero;stroke:none"
         d="m 2655.92,368.371 c -1.71,0 -3.41,-0.062 -5.09,-0.172 l -0.74,6.262 c 1.87,1.5 2.96,3.891 2.65,6.449 -0.45,3.922 -4.02,6.742 -7.95,6.281 -3.93,-0.461 -6.74,-4.031 -6.27,-7.961 0.3,-2.539 1.89,-4.609 4.04,-5.64 l 0.73,-6.238 c -7.14,-1.161 -14.02,-3.321 -20.59,-6.454 l 3.27,-6.847 c 9.34,4.48 19.41,6.738 29.95,6.738 4.97,0 9.93,-0.527 14.75,-1.578 l 1.61,7.41 c -5.36,1.16 -10.85,1.75 -16.36,1.75" /><path
         id="path236"
         style="fill:#1d262d;fill-opacity:1;fill-rule:nonzero;stroke:none"
         d="m 2721.94,342.898 c 3.31,0.403 5.67,3.411 5.26,6.723 -0.4,3.309 -3.41,5.66 -6.72,5.25 -3.1,-0.379 -5.35,-3.031 -5.3,-6.082 l -4.16,-3.629 c -4.18,4.289 -8.9,8.121 -14.08,11.391 l -4.04,-6.41 c 11.35,-7.149 20.21,-17.27 25.64,-29.25 l 6.9,3.121 c -2.51,5.539 -5.67,10.718 -9.42,15.449 l 4.02,3.508 c 0.61,-0.117 1.25,-0.16 1.9,-0.071" /><path
         id="path238"
         style="fill:#1d262d;fill-opacity:1;fill-rule:nonzero;stroke:none"
         d="m 2650.45,266.289 c -3.86,-0.238 -7.75,-0.348 -11.57,-0.348 -8.8,0 -17.34,0.598 -24.79,1.789 -3.9,0.622 -8.46,1.551 -12.7,2.918 10.47,-18.609 30.69,-31.25 53.88,-31.25 28.56,0 52.63,19.161 59.5,45.032 -6.82,-4.489 -15.05,-8.25 -24.58,-11.219 -11.8,-3.68 -25.55,-6.07 -39.74,-6.922" /><path
         id="path240"
         style="fill:#1d262d;fill-opacity:1;fill-rule:nonzero;stroke:none"
         d="m 2681.7,297.141 c -7.5,0 -13.6,6.101 -13.6,13.601 0,7.5 6.1,13.61 13.6,13.61 7.5,0 13.6,-6.11 13.6,-13.61 0,-7.5 -6.1,-13.601 -13.6,-13.601 z m -47.37,-9.082 c -10.2,0 -18.5,8.3 -18.5,18.492 0,10.211 8.3,18.508 18.5,18.508 10.19,0 18.49,-8.297 18.49,-18.508 0,-10.192 -8.3,-18.492 -18.49,-18.492 z m 21.59,65.14 c -33.52,0 -60.79,-26.66 -60.79,-59.429 0,-4.25 0.46,-8.489 1.36,-12.61 6.74,-4.828 27.06,-8.898 53.48,-7.308 28.8,1.738 52.97,9.578 66.72,21.589 -0.05,1.938 -0.21,3.899 -0.45,5.809 -3.8,29.621 -29.74,51.949 -60.32,51.949" /><path
         id="path242"
         style="fill:#1d262d;fill-opacity:1;fill-rule:nonzero;stroke:none"
         d="m 2815.96,334.531 c -2.95,1.16 -8.06,3.098 -13.83,2.379 -5.51,-0.691 -8.44,-3.398 -8.44,-10.058 v -8.672 h 22.29 v -17.16 h -22.29 v -54.559 h -19.31 v 54.559 h -13.39 v 17.16 h 13.39 v 8.89 c 0,16.801 8.95,27.821 25.68,27.821 6.42,0 11.57,-1.211 15.9,-3.071 v -17.289" /><path
         id="path244"
         style="fill:#1d262d;fill-opacity:1;fill-rule:nonzero;stroke:none"
         d="m 2862.98,301.219 c -1.77,0.293 -3.58,0.461 -5.26,0.461 -8.95,0 -15.09,-5.481 -15.09,-16.129 v -39.09 h -19.33 v 71.719 h 18.73 v -7.84 c 4.51,6.73 11.4,9.769 20.21,9.769 4.14,0 8.47,-1.277 10.94,-3.367 l -10.2,-15.523" /><path
         id="path246"
         style="fill:#1d262d;fill-opacity:1;fill-rule:nonzero;stroke:none"
         d="m 2888.52,289.09 h 31.74 c -1.77,9.18 -7.32,14.371 -15.61,14.371 -9.1,0 -14.44,-5.481 -16.13,-14.371 z m 51.14,-6.66 c 0,-2.219 -0.16,-4.879 -0.37,-6.508 h -50.85 c 2.07,-10.363 9.32,-14.883 18.43,-14.883 6.22,0 12.94,2.52 18.13,6.891 l 11.33,-12.43 c -8.15,-7.48 -18.51,-10.891 -30.57,-10.891 -21.98,0 -37.23,14.961 -37.23,37.532 0,22.578 14.8,37.968 36.26,37.968 20.65,0 34.79,-15.32 34.87,-37.679" /><path
         id="path248"
         style="fill:#1d262d;fill-opacity:1;fill-rule:nonzero;stroke:none"
         d="m 2965.05,289.09 h 31.75 c -1.78,9.18 -7.34,14.371 -15.62,14.371 -9.1,0 -14.43,-5.481 -16.13,-14.371 z m 51.14,-6.66 c 0,-2.219 -0.15,-4.879 -0.37,-6.508 h -50.85 c 2.07,-10.363 9.33,-14.883 18.43,-14.883 6.22,0 12.96,2.52 18.13,6.891 l 11.33,-12.43 c -8.14,-7.48 -18.5,-10.891 -30.57,-10.891 -21.99,0 -37.23,14.961 -37.23,37.532 0,22.578 14.8,37.968 36.27,37.968 20.64,0 34.78,-15.32 34.86,-37.679" /><path
         id="path250"
         style="fill:#1d262d;fill-opacity:1;fill-rule:nonzero;stroke:none"
         d="m 3042.87,282.359 c 0,-11.32 7.48,-19.757 18.44,-19.757 11.4,0 18.49,8.808 18.49,19.757 0,10.95 -7.09,19.762 -18.49,19.762 -10.96,0 -18.44,-8.441 -18.44,-19.762 z m 56.78,0 c 0,-21.539 -14.95,-37.75 -34.72,-37.75 -9.62,0 -16.43,3.782 -21.09,9.332 v -37.082 h -19.25 V 318.18 h 18.88 v -7.918 c 4.66,5.847 11.54,9.847 21.38,9.847 19.85,0 34.8,-16.207 34.8,-37.75" /><path
         id="path252"
         style="fill:#1d262d;fill-opacity:1;fill-rule:nonzero;stroke:none"
         d="m 3128.09,246.461 h -19.32 v 71.719 h 19.32 z m 2.59,95.187 c 0,-6.957 -5.41,-12.289 -12.36,-12.289 -6.96,0 -12.28,5.332 -12.28,12.289 0,6.954 5.32,12.434 12.28,12.434 6.95,0 12.36,-5.48 12.36,-12.434" /><path
         id="path254"
         style="fill:#1d262d;fill-opacity:1;fill-rule:nonzero;stroke:none"
         d="m 3160.32,292.652 27.02,25.528 h 23.69 l -34.79,-33.75 35.01,-37.969 h -23.76 l -27.17,29.019 v -29.019 h -19.31 v 106.59 h 19.31 v -60.399" /><path
         id="path256"
         style="fill:#1d262d;fill-opacity:1;fill-rule:nonzero;stroke:none"
         d="m 1844.13,266.301 v 32.078 c -3.95,6.152 -12.45,11.422 -21.24,11.422 -14.21,0 -22.7,-11.711 -22.7,-27.391 0,-15.668 8.49,-27.238 22.7,-27.238 8.79,0 17.29,4.98 21.24,11.129 z m 0,-19.192 v 10.551 c -5.27,-7.18 -13.92,-12.308 -23.88,-12.308 -18.45,0 -31.49,14.058 -31.49,37.058 0,22.559 12.89,37.211 31.49,37.211 9.53,0 18.17,-4.691 23.88,-12.449 v 37.637 h 10.99 v -97.7 h -10.99" /><path
         id="path258"
         style="fill:#1d262d;fill-opacity:1;fill-rule:nonzero;stroke:none"
         d="m 1904.04,310.539 c -15.08,0 -22.56,-12.75 -23.14,-23.59 h 46.43 c -0.14,10.551 -7.17,23.59 -23.29,23.59 z m -34.71,-27.98 c 0,20.511 14.64,37.062 34.86,37.062 21.39,0 33.97,-16.699 33.97,-37.941 v -2.778 h -57.26 c 0.88,-13.332 10.25,-24.472 25.49,-24.472 8.05,0 16.26,3.23 21.81,8.941 l 5.28,-7.18 c -7.03,-7.031 -16.55,-10.839 -28.12,-10.839 -20.95,0 -36.03,15.089 -36.03,37.207" /><path
         id="path260"
         style="fill:#1d262d;fill-opacity:1;fill-rule:nonzero;stroke:none"
         d="m 1946.07,256.48 5.72,7.911 c 4.68,-5.422 13.62,-10.102 23.29,-10.102 10.84,0 16.7,5.121 16.7,12.16 0,17.133 -43.8,6.59 -43.8,32.813 0,10.976 9.52,20.359 26.37,20.359 12.01,0 20.5,-4.539 26.22,-10.25 l -5.13,-7.621 c -4.25,5.121 -12.01,8.93 -21.09,8.93 -9.67,0 -15.68,-4.828 -15.68,-11.129 0,-15.531 43.8,-5.27 43.8,-32.809 0,-11.871 -9.52,-21.39 -27.83,-21.39 -11.57,0 -21.39,3.519 -28.57,11.128" /><path
         id="path262"
         style="fill:#1d262d;fill-opacity:1;fill-rule:nonzero;stroke:none"
         d="m 2016.68,247.109 v 70.75 h 10.99 v -70.75 z m -1.9,88.18 c 0,4.102 3.36,7.473 7.32,7.473 4.1,0 7.47,-3.371 7.47,-7.473 0,-4.098 -3.37,-7.32 -7.47,-7.32 -3.96,0 -7.32,3.222 -7.32,7.32" /><path
         id="path264"
         style="fill:#1d262d;fill-opacity:1;fill-rule:nonzero;stroke:none"
         d="m 2097.09,267.469 v 30.91 c -3.81,6.152 -12.3,11.422 -21.09,11.422 -14.21,0 -22.7,-11.27 -22.7,-26.949 0,-15.532 8.49,-26.954 22.7,-26.954 8.79,0 17.28,5.422 21.09,11.571 z m -51.26,-38.52 5.56,8.199 c 5.86,-7.027 12.89,-9.668 22.99,-9.668 11.72,0 22.71,5.711 22.71,21.239 v 10.113 c -5.13,-7.184 -13.77,-12.602 -23.73,-12.602 -18.46,0 -31.49,13.77 -31.49,36.622 0,22.707 12.89,36.769 31.49,36.769 9.52,0 18.02,-4.691 23.73,-12.449 v 10.687 h 10.99 V 249.16 c 0,-23.441 -16.41,-30.762 -33.7,-30.762 -12.01,0 -20.21,2.352 -28.55,10.551" /><path
         id="path266"
         style="fill:#1d262d;fill-opacity:1;fill-rule:nonzero;stroke:none"
         d="m 2174.14,247.109 v 46.289 c 0,12.454 -6.3,16.403 -15.82,16.403 -8.64,0 -16.85,-5.27 -20.95,-10.981 v -51.711 h -10.98 v 70.75 h 10.98 v -10.25 c 4.98,5.86 14.65,12.012 25.2,12.012 14.79,0 22.56,-7.473 22.56,-22.851 v -49.661 h -10.99" /><path
         id="path268"
         style="fill:#1d262d;fill-opacity:1;fill-rule:nonzero;stroke:none"
         d="m 2234.04,310.539 c -15.08,0 -22.56,-12.75 -23.13,-23.59 h 46.42 c -0.14,10.551 -7.17,23.59 -23.29,23.59 z m -34.71,-27.98 c 0,20.511 14.64,37.062 34.86,37.062 21.39,0 33.98,-16.699 33.98,-37.941 v -2.778 h -57.26 c 0.88,-13.332 10.24,-24.472 25.48,-24.472 8.05,0 16.26,3.23 21.82,8.941 l 5.28,-7.18 c -7.03,-7.031 -16.56,-10.839 -28.13,-10.839 -20.94,0 -36.03,15.089 -36.03,37.207" /><path
         id="path270"
         style="fill:#1d262d;fill-opacity:1;fill-rule:nonzero;stroke:none"
         d="m 2333.51,266.301 v 32.078 c -3.96,6.152 -12.46,11.422 -21.24,11.422 -14.21,0 -22.71,-11.711 -22.71,-27.391 0,-15.668 8.5,-27.238 22.71,-27.238 8.78,0 17.28,4.98 21.24,11.129 z m 0,-19.192 v 10.551 c -5.28,-7.18 -13.92,-12.308 -23.88,-12.308 -18.46,0 -31.5,14.058 -31.5,37.058 0,22.559 12.9,37.211 31.5,37.211 9.52,0 18.16,-4.691 23.88,-12.449 v 37.637 h 10.98 v -97.7 h -10.98" /><path
         id="path272"
         style="fill:#1d262d;fill-opacity:1;fill-rule:nonzero;stroke:none"
         d="m 2429,255.172 c 14.36,0 22.86,11.57 22.86,27.238 0,15.68 -8.5,27.391 -22.86,27.391 -8.64,0 -17.28,-5.27 -21.09,-11.422 v -32.078 c 3.81,-6.149 12.45,-11.129 21.09,-11.129 z m -32.08,-8.063 v 97.7 h 10.99 v -37.637 c 5.71,7.758 14.21,12.449 23.88,12.449 18.45,0 31.49,-14.652 31.49,-37.211 0,-23 -13.04,-37.058 -31.49,-37.058 -9.96,0 -18.61,5.128 -23.88,12.308 v -10.551 h -10.99" /><path
         id="path274"
         style="fill:#1d262d;fill-opacity:1;fill-rule:nonzero;stroke:none"
         d="m 2475.29,229.379 c 1.61,-0.731 4.25,-1.168 6.01,-1.168 4.83,0 8.06,1.609 10.55,7.469 l 4.68,10.699 -29.59,71.48 h 11.87 l 23.58,-58.007 23.44,58.007 h 12 l -35.44,-85.109 c -4.25,-10.238 -11.42,-14.211 -20.8,-14.352 -2.34,0 -6,0.442 -8.05,1.032 l 1.75,9.949" /></g></g></svg>